# Blender 4.1.1
# www.blender.org
mtllib e.mtl
o Cube
v -26.217966 -2.986013 4.422686
v -26.217966 5.705871 4.422686
v -26.217966 -2.986013 -4.538826
v -26.217966 5.705871 -4.538826
v 1.987152 -2.986013 4.422686
v 1.987152 5.705871 4.422686
v 1.987152 -2.986013 -4.538826
v 1.987152 5.705871 -4.538826
v -26.147017 -2.879398 4.264775
v -26.147017 5.599256 4.264775
v -26.147017 -2.879398 -4.380916
v -26.147017 5.599256 -4.380916
v 1.916202 -2.879398 4.264775
v 1.916202 5.599256 4.264775
v 1.916202 -2.879398 -4.380916
v 1.916202 5.599256 -4.380916
vn -1.0000 -0.0000 -0.0000
vn -0.0000 -0.0000 -1.0000
vn -0.0000 -0.0000 1.0000
vn -0.0000 -1.0000 -0.0000
vn -0.0000 1.0000 -0.0000
vn 1.0000 -0.0000 -0.0000
vn 0.9122 -0.0000 -0.4098
vn 0.8325 0.5540 -0.0000
vn 0.8325 -0.5540 -0.0000
vn 0.9122 -0.0000 0.4098
vt 0.328644 1.000000
vt 0.328644 0.830371
vt 0.439549 0.830371
vt 0.439549 1.000000
vt 0.159324 0.827131
vt 0.000000 0.827131
vt 0.000000 0.000000
vt 0.159324 0.000000
vt 0.323646 0.827131
vt 0.164322 0.827131
vt 0.164322 0.000000
vt 0.323646 0.000000
vt 0.768193 0.000000
vt 0.768193 0.827131
vt 0.657287 0.827131
vt 0.657287 0.000000
vt 0.889094 0.584869
vt 0.889094 0.000000
vt 1.000000 0.000000
vt 1.000000 0.584869
vt 0.551544 0.947374
vt 0.444547 0.947374
vt 0.444547 0.830371
vt 0.551544 0.830371
vt 0.486013 0.000000
vt 0.486013 0.822970
vt 0.330598 0.822970
vt 0.330598 0.000000
vt 0.494920 0.822970
vt 0.494919 0.000000
vt 0.650335 0.000000
vt 0.650335 0.822970
vt 0.882142 0.822970
vt 0.775145 0.822970
vt 0.775145 0.000000
vt 0.882142 0.000000
vt 0.652289 0.825050
vt 0.492965 0.825050
vt 0.559306 0.830371
vt 0.559306 0.948450
vt 0.556542 0.946369
vt 0.556542 0.832452
vt 0.884096 0.825050
vt 0.773190 0.825050
vt 0.487968 0.825050
vt 0.328644 0.825050
s 1
usemtl room1
f 1/1/1 2/2/1 4/3/1 3/4/1
f 3/5/2 4/6/2 8/7/2 7/8/2
f 5/9/3 6/10/3 2/11/3 1/12/3
f 3/13/4 7/14/4 5/15/4 1/16/4
f 8/17/5 4/18/5 2/19/5 6/20/5
f 9/21/6 11/22/6 12/23/6 10/24/6
f 11/25/3 15/26/3 16/27/3 12/28/3
f 13/29/2 9/30/2 10/31/2 14/32/2
f 16/33/4 14/34/4 10/35/4 12/36/4
f 6/37/7 5/38/7 13/29/7 14/32/7
f 5/39/8 7/40/8 15/41/8 13/42/8
f 8/43/9 6/44/9 14/34/9 16/33/9
f 7/45/10 8/46/10 16/27/10 15/26/10
o Cube.037
v -26.147017 -2.879398 4.264775
v -26.147017 -2.879398 -4.380916
v 1.916202 -2.879398 4.264775
v 1.916202 -2.879398 -4.380916
vn -0.0000 1.0000 -0.0000
vt 0.999999 1.000000
vt 0.000000 1.000000
vt 0.000001 0.000000
vt 1.000000 0.000000
s 1
usemtl room2
f 18/47/11 17/48/11 19/49/11 20/50/11
